<?xml version="1.0" encoding="UTF-8"?>
<svg width="24" height="24" viewBox="0 0 24 24" xmlns="http://www.w3.org/2000/svg">
  <!-- Circular arrow -->
  <g fill="currentColor">
    <path d="M12 2C6.48 2 2 6.48 2 12s4.48 10 10 10 10-4.48 10-10S17.52 2 12 2zm0 18c-4.41 0-8-3.59-8-8s3.59-8 8-8 8 3.59 8 8-3.59 8-8 8z"/>
    <path d="M12.5 7v5.25l4.5 2.67-.75 1.23L11 13V7z"/>
    <!-- Circular arrow path -->
    <path d="M20 11c-.2-2.06-1.13-3.92-2.53-5.37l1.42-1.42C20.45 5.78 21.5 8 21.8 10.5h-1.8z"/>
    <path d="M4 11c.2-2.06 1.13-3.92 2.53-5.37L5.11 4.21C3.55 5.78 2.5 8 2.2 10.5H4z"/>
  </g>
</svg>