<?xml version="1.0" encoding="UTF-8"?>
<svg width="32" height="32" viewBox="0 0 32 32" fill="none" xmlns="http://www.w3.org/2000/svg">
  <!-- Body -->
  <path d="M8 12C8 8 12 4 16 4C20 4 24 8 24 12V24C24 28 20 28 16 28C12 28 8 28 8 24V12Z" fill="#F08080"/>
  
  <!-- Gills -->
  <path d="M8 12C8 12 4 14 4 16C4 18 6 18 8 16M24 12C24 12 28 14 28 16C28 18 26 18 24 16" fill="#FF6B6B"/>
  
  <!-- Eyes -->
  <circle cx="12" cy="10" r="2" fill="black"/>
  <circle cx="20" cy="10" r="2" fill="black"/>
  
  <!-- Mouth -->
  <path d="M14 14C14 14 16 16 18 14" stroke="black" stroke-width="1" fill="none"/>
</svg>